M48
INCH
T10C0.038000
%
T10
X000932Y015495
X001932Y015495
X002932Y015495
X003932Y015495
X004932Y015495
X005932Y015495
X006932Y015495
X007932Y015495
X008932Y015495
X009932Y015495
X010932Y015495
X000898Y010580
X001898Y010580
X002898Y010580
X003898Y010580
X004898Y010580
X005898Y010580
X006898Y010580
X007898Y010580
X008898Y010580
X009898Y010580
X010898Y010580
X000898Y005619
X001898Y005619
X002898Y005619
X003898Y005619
X004898Y005619
X005898Y005619
X006898Y005619
X007898Y005619
X008898Y005619
X009898Y005619
X010898Y005619
X000845Y000659
X001845Y000659
X002845Y000659
X003845Y000659
X004845Y000659
X005845Y000659
X006845Y000659
X007845Y000659
X008845Y000659
X009845Y000659
X010845Y000659
T00
M30
